<svg width="155" height="32" viewBox="0 0 155 32" fill="none" xmlns="http://www.w3.org/2000/svg">
<path d="M142.843 26.2741C142.954 28.3582 144.766 29.7145 147.59 29.7145C150 29.7145 151.792 28.6319 151.792 26.9417C151.792 24.7773 149.828 24.5052 147.338 24.1697C144.078 23.745 141.253 23.1277 141.253 19.9911C141.253 17.2897 143.754 15.5094 147.206 15.5297C150.608 15.5492 153.098 17.0981 153.361 20.1738H151.458C151.214 18.3115 149.555 17.1281 147.206 17.1281C144.746 17.1281 143.106 18.2002 143.106 19.8497C143.106 21.8526 145.07 22.106 147.419 22.4195C150.8 22.8646 153.645 23.5119 153.645 26.8207C153.645 29.6033 150.942 31.3129 147.59 31.3129C143.683 31.3129 141.041 29.5318 140.94 26.2774L142.843 26.2741Z" fill="#0572E6"/>
<path d="M136.842 15.6654H138.705V31.131H137.079L136.826 28.2778C135.932 29.9777 134.245 31.3129 131.572 31.3129C128.17 31.3129 125.589 29.2589 125.589 24.3281V15.6654H127.451V24.2201C127.451 27.7417 129.111 29.6033 131.875 29.6033C134.942 29.6033 136.845 27.1846 136.845 23.33L136.842 15.6654Z" fill="#0572E6"/>
<path d="M117.279 13.016C116.694 12.024 115.835 11.2217 114.805 10.7054C113.749 10.1604 112.496 9.88427 111.088 9.88427H103.381V19.7563H105.356V11.6914H110.963C112.556 11.6914 113.839 12.1348 114.776 13.0104C115.713 13.8859 116.186 15.0465 116.186 16.467C116.186 17.8875 115.706 19.0359 114.761 19.909C113.815 20.7821 112.524 21.2288 110.931 21.2288H103.382V31.131H105.357V23.0506H111.09C112.476 23.0506 113.722 22.7736 114.791 22.2294C115.83 21.7132 116.696 20.904 117.281 19.9017C117.859 18.9052 118.153 17.7503 118.153 16.467C118.151 15.1626 117.862 14.002 117.279 13.016Z" fill="#0572E6"/>
<path fill-rule="evenodd" clip-rule="evenodd" d="M18.1668 9.86964C18.7698 9.86964 19.233 10.2067 19.3533 10.8906L20.9258 19.7515H6.42551C8.7099 16.0853 10.7481 12.8276 10.7481 12.8276C11.8755 10.9919 13.8751 9.87211 16.0303 9.86964H18.1668ZM54.8203 25.3092H62.378C63.0225 25.3092 63.4564 25.6642 63.4564 26.3951V30.0305C63.4564 30.7574 63.0225 31.1123 62.378 31.1123H46.406C45.7494 31.1123 45.3056 30.7232 45.3056 30.0085V29.3905C45.3056 28.2964 45.4137 26.72 46.5328 25.1582L49.525 21.228H57.9214L54.8203 25.3092ZM43.2398 10.9515C43.2398 10.2246 42.8059 9.86964 42.1574 9.86964H37.8088C37.1652 9.86964 36.7304 10.2246 36.7304 10.9515V19.1878L32.6135 11.7831C31.7894 10.4187 30.403 9.89969 28.7842 9.86964H25.5669C24.9281 9.86964 24.4926 10.2246 24.4926 10.9515V19.7563H29.8943L30.7249 21.228H24.4926V30.0305C24.4926 30.7574 24.9281 31.1188 25.5669 31.1188H29.9252C30.5753 31.1188 31.002 30.7574 31.002 30.0305V21.7462L35.1595 29.2077C35.9722 30.5649 37.3667 31.0839 38.9742 31.1188H42.1574C42.8075 31.1188 43.2398 30.7574 43.2398 30.0305V21.228H37.8763L37.0482 19.7563H43.2398V10.9515ZM14.0222 21.228H21.1842H21.1875L22.7153 29.8688C22.7827 30.2676 22.7226 30.5397 22.5779 30.7192C22.3626 30.9766 22.135 31.118 21.684 31.118H16.7568C16.1441 31.118 15.7264 30.7769 15.6045 30.106C15.5776 29.9572 15.4026 28.9733 15.1775 27.7073L15.1772 27.7055C14.7499 25.3024 14.142 21.8838 14.0222 21.228ZM0.157446 29.786C-0.037593 30.1198 -0.037593 30.4698 0.0818681 30.6973C0.219208 30.9628 0.524768 31.1188 0.854708 31.1188H5.97447C6.60478 31.1158 7.18876 30.7874 7.51853 30.2506L13.1657 21.228H5.50232C4.36511 23.0481 3.22533 24.8748 2.29208 26.3706C1.06521 28.3369 0.195294 29.7311 0.157446 29.786ZM53.75 15.6654H46.5498V15.667C45.9054 15.667 45.4738 15.3129 45.4738 14.5884V10.9515C45.4738 10.2246 45.9054 9.86964 46.5498 9.86964H62.1683C62.8307 9.86964 63.2654 10.2619 63.2654 10.9799V12.3817C63.2654 13.3702 63.046 14.4812 62.1009 15.7255L59.0388 19.7515H50.6448L53.75 15.6654Z" fill="#0572E6"/>
<path d="M82.3118 9.86965C83.7827 9.86965 85.456 11.1448 85.456 12.9072C85.456 13.8997 85.139 14.6664 84.6734 15.3665C84.3976 15.7754 84.1888 16.2255 84.0549 16.7001C83.9534 17.12 83.7299 18.1369 84.9757 18.1539C85.7883 18.1742 87.7761 17.4701 89.3852 15.5314C90.6689 13.9147 91.3647 11.91 91.3583 9.84609C91.3583 4.81056 87.3137 0.730965 82.3134 0.730965C77.3131 0.730965 73.2604 4.813 73.2604 9.84609C73.2537 11.91 73.9495 13.9149 75.2335 15.5314C76.845 17.4701 78.8344 18.1742 79.643 18.1539C80.8872 18.1369 80.6613 17.12 80.5654 16.7001C80.4319 16.2253 80.2219 15.7754 79.9437 15.3681C79.4797 14.668 79.1619 13.9013 79.1619 12.9088C79.1619 11.1464 80.836 9.87127 82.3134 9.87127" fill="#0572E6"/>
<path d="M98.3114 19.0822C97.9409 18.7752 97.2899 18.3277 95.9547 18.1222C94.1027 17.8453 92.4489 18.279 91.4534 18.6745C90.1442 19.1919 88.5278 20.3687 87.4185 21.9013C86.2434 23.5216 85.6355 25.9622 86.2182 28.5149C86.3402 29.0834 86.5455 29.6308 86.8277 30.1393C87.1755 30.8223 88.093 31.7767 88.8959 31.9488C89.5306 32.0796 90.0264 31.7149 90.2702 31.4396C91.8873 29.5667 98.0197 22.3115 98.6844 21.3848C99.3346 20.4638 98.9112 19.5793 98.3114 19.0814" fill="#0572E6"/>
<path d="M73.1652 18.6745C72.1697 18.279 70.5176 17.8453 68.6647 18.1222C67.3295 18.3277 66.6737 18.772 66.308 19.0822C65.7083 19.5801 65.2784 20.4629 65.935 21.3856C66.5916 22.3082 72.7272 29.5667 74.3452 31.4404C74.589 31.7157 75.0847 32.0812 75.7202 31.9496C76.528 31.7775 77.4423 30.8231 77.7885 30.1393C78.0718 29.6308 78.2788 29.0835 78.4028 28.5149C78.9839 25.9663 78.3671 23.5208 77.2025 21.9013C76.0908 20.3687 74.4736 19.1919 73.1652 18.6745" fill="#0572E6"/>
<path d="M120.37 9.88427H122.233V31.131H120.37V9.88427Z" fill="#0572E6"/>
</svg>
